<?xml version="1.0" encoding="UTF-8" standalone="no"?>
<!-- Created with Inkscape (http://www.inkscape.org/) -->

<svg
   xmlns:dc="http://purl.org/dc/elements/1.1/"
   xmlns:cc="http://creativecommons.org/ns#"
   xmlns:rdf="http://www.w3.org/1999/02/22-rdf-syntax-ns#"
   xmlns:svg="http://www.w3.org/2000/svg"
   xmlns="http://www.w3.org/2000/svg"
   xmlns:sodipodi="http://sodipodi.sourceforge.net/DTD/sodipodi-0.dtd"
   xmlns:inkscape="http://www.inkscape.org/namespaces/inkscape"
   width="124.17062mm"
   height="103.45384mm"
   viewBox="0 0 124.17062 103.45384"
   version="1.1"
   id="svg8"
   inkscape:version="0.92.2 (5c3e80d, 2017-08-06)"
   sodipodi:docname="thoughtbubble.svg">
  <defs
     id="defs2" />
  <sodipodi:namedview
     id="base"
     pagecolor="#ffffff"
     bordercolor="#666666"
     borderopacity="1.0"
     inkscape:pageopacity="0.0"
     inkscape:pageshadow="2"
     inkscape:zoom="0.35"
     inkscape:cx="248.38285"
     inkscape:cy="-44.42556"
     inkscape:document-units="mm"
     inkscape:current-layer="layer1"
     showgrid="false"
     inkscape:window-width="1366"
     inkscape:window-height="745"
     inkscape:window-x="-8"
     inkscape:window-y="-8"
     inkscape:window-maximized="1"
     fit-margin-top="0"
     fit-margin-left="0"
     fit-margin-right="0"
     fit-margin-bottom="0" />
  <metadata
     id="metadata5">
    <rdf:RDF>
      <cc:Work
         rdf:about="">
        <dc:format>image/svg+xml</dc:format>
        <dc:type
           rdf:resource="http://purl.org/dc/dcmitype/StillImage" />
        <dc:title></dc:title>
      </cc:Work>
    </rdf:RDF>
  </metadata>
  <g
     inkscape:label="Layer 1"
     inkscape:groupmode="layer"
     id="layer1"
     transform="translate(-40.11537,-33.625228)">
    <path
       style="fill:#000000;stroke-width:0.97692311"
       d="m 85.027197,135.5751 c -3.158975,-3.15897 -0.764338,-8.23407 3.885171,-8.23407 1.428655,0 2.97741,0.95754 3.950268,2.44231 1.4824,2.26243 1.4824,2.62219 0,4.88461 -1.839963,2.80814 -5.509594,3.233 -7.835439,0.90715 z m -23.112131,-8.50937 c -6.33808,-4.86623 -3.510593,-14.37855 4.273946,-14.37855 3.970687,0 6.198736,1.47481 7.389808,4.89153 1.186975,3.40496 0.686129,5.41735 -2.125731,8.54117 -2.193335,2.43667 -6.978257,2.91118 -9.538023,0.94585 z M 90.330493,113.0558 c -3.993831,-1.55117 -9.51398,-4.67301 -11.480971,-6.49291 -1.810496,-1.6751 -3.540845,-2.05331 -9.769231,-2.1353 -9.163882,-0.12063 -14.794508,-2.38512 -20.757492,-8.348096 -5.945825,-5.94582 -8.207429,-11.59895 -8.207429,-20.51538 0,-9.10986 2.348518,-14.78422 8.656161,-20.91455 5.270246,-5.12209 13.095079,-8.39315 20.077592,-8.39315 4.391365,0 5.203686,-0.38142 9.090892,-4.26863 7.861,-7.861 20.548508,-10.52043 31.086955,-6.51613 5.02991,1.91122 5.05303,1.91102 11.00086,-0.0936 11.75308,-3.96118 25.55669,-0.98335 34.01529,7.33806 16.84511,16.57191 12.2702,44.12326 -9.00493,54.23011 -4.26285,2.02508 -7.02204,2.58971 -13.35343,2.73257 l -7.98036,0.18007 -4.18727,4.542656 c -6.04649,6.55967 -10.51433,8.56247 -19.905857,8.92322 -4.298472,0.16511 -8.474818,0.0441 -9.28078,-0.26894 z M 83.01498,78.482274 c 4.024752,-4.4473 0.808545,-11.71047 -5.18552,-11.71047 -3.327762,0 -7.037429,3.59745 -7.037429,6.82454 0,5.95077 8.268218,9.25586 12.222949,4.88593 z m 23.92321,0.0126 c 4.2283,-4.22831 1.10548,-11.72308 -4.88462,-11.72308 -3.760447,0 -6.838461,3.078 -6.838461,6.83846 0,1.62821 0.868376,3.79915 1.953849,4.88462 1.085475,1.08547 3.256412,1.95384 4.884612,1.95384 1.62821,0 3.79915,-0.86837 4.88462,-1.95384 z m 24.38502,-0.18421 c 5.90078,-6.33374 -3.02307,-15.21336 -9.78577,-9.73726 -2.74597,2.22355 -2.96615,7.12332 -0.44528,9.90886 2.43402,2.68955 7.64693,2.60212 10.23105,-0.1716 z"
       id="path43"
       inkscape:connector-curvature="0" />
  </g>
</svg>
